# xmcd CD database file
#
# Track frame offsets:
#	150
#	6096
#	16709
#	24816
#	34815
#	43097
#	51354
#	61063
#	67690
#	80164
#	91191
#	106163
#	116872
#	133173
#	139654
#	150751
#	156033
#	171202
#	180085
#	185478
#	193412
#	209323
#	219507
#	231468
#	251409
#
# Disc length: 3521 seconds
#
# Revision: 0
# Processed by: cddbd v1.5.2PL0 Copyright (c) Steve Scherf et al.
# Submitted via: CD2WAV32(JP) R3.22
#
DISCID=460dbf19
DTITLE=Other - かっこいい えいごのうた50 Disc：1
DYEAR=2010
DGENRE=Other
TTITLE0=トライ・イット
TTITLE1=ミュージカル・マンス
TTITLE2=ホワッツ・ユア・ネーム
TTITLE3=ホーキー・ポーキー
TTITLE4=ABCのうた
TTITLE5=ハッピー・バースデー・トゥー・ユー
TTITLE6=ロンドンばし
TTITLE7=メリーさんのひつじ
TTITLE8=ドレミのうた
TTITLE9=しあわせなら手をたたこう
TTITLE10=オブラディ・オブラダ
TTITLE11=ザ・ファーマー・イン・ザ・デル
TTITLE12=大きな古時計
TTITLE13=バー・バー・ブラック・シープ
TTITLE14=ごんべさんの赤ちゃん
TTITLE15=ロウ・ロウ・ロウ・ユア・ボート
TTITLE16=ビンゴ
TTITLE17=ハッシュ・リトル・ベイビー
TTITLE18=セブン・ステップス
TTITLE19=ハンプティ・ダンプティ
TTITLE20=シング
TTITLE21=ロッカバイ・ベイビー
TTITLE22=エーデルワイス
TTITLE23=スマイル
TTITLE24=トゥモロー
EXTD=
EXTT0=
EXTT1=
EXTT2=
EXTT3=
EXTT4=
EXTT5=
EXTT6=
EXTT7=
EXTT8=
EXTT9=
EXTT10=
EXTT11=
EXTT12=
EXTT13=
EXTT14=
EXTT15=
EXTT16=
EXTT17=
EXTT18=
EXTT19=
EXTT20=
EXTT21=
EXTT22=
EXTT23=
EXTT24=
PLAYORDER=
